<?xml version="1.0" standalone="no"?>
<!DOCTYPE svg PUBLIC "-//W3C//DTD SVG 20010904//EN"
 "http://www.w3.org/TR/2001/REC-SVG-20010904/DTD/svg10.dtd">
<svg version="1.0" xmlns="http://www.w3.org/2000/svg"
 width="1024.000000pt" height="1024.000000pt" viewBox="0 0 1024.000000 1024.000000"
 preserveAspectRatio="xMidYMid meet">

<g transform="translate(0.000000,1024.000000) scale(0.100000,-0.100000)"
fill="#000000" stroke="none">
<path d="M2205 9935 c-25 -24 -25 -26 -25 -205 0 -179 0 -181 25 -205 13 -14
36 -25 50 -25 14 0 37 11 50 25 25 24 25 26 25 205 0 179 0 181 -25 205 -13
14 -36 25 -50 25 -14 0 -37 -11 -50 -25z"/>
<path d="M1312 9690 c-28 -12 -46 -51 -39 -82 9 -34 154 -259 188 -291 23 -21
36 -26 57 -21 35 8 62 39 62 73 0 23 -149 273 -183 308 -17 17 -59 24 -85 13z"/>
<path d="M3193 9685 c-23 -16 -186 -266 -197 -303 -15 -48 48 -101 97 -83 15
6 58 62 115 153 102 160 112 191 66 227 -32 25 -52 26 -81 6z"/>
<path d="M5189 9336 c-103 -27 -208 -119 -257 -224 l-27 -57 -3 -466 -3 -467
27 -21 c33 -26 54 -26 87 -1 l26 21 3 442 c3 440 3 442 26 489 13 27 42 64 65
83 81 70 -64 65 2077 63 l1935 -3 53 -29 c29 -17 66 -48 83 -70 62 -85 59 -16
59 -1433 l0 -1293 -2147 2 -2148 3 -5 513 c-5 494 -6 514 -24 528 -29 21 -70
17 -95 -9 l-22 -24 3 -684 3 -685 38 -76 c55 -112 141 -182 262 -214 39 -11
189 -14 698 -14 551 0 647 -2 647 -14 0 -8 -11 -86 -25 -173 -14 -87 -25 -161
-25 -165 0 -3 -64 -8 -142 -10 -123 -3 -149 -6 -184 -25 -85 -45 -122 -113
-131 -237 -7 -98 6 -145 48 -181 l31 -25 1071 0 c1054 0 1073 0 1105 20 43 27
52 54 52 163 0 104 -19 159 -73 215 -51 53 -118 72 -257 72 -66 0 -120 3 -120
8 0 9 -47 282 -56 325 l-6 27 639 0 c696 0 701 0 806 57 61 34 128 107 164
181 l28 57 0 1525 0 1525 -27 55 c-54 110 -141 184 -259 221 -59 18 -124 19
-2007 18 -1510 0 -1957 -3 -1993 -13z m4149 -3193 c-7 -143 -58 -218 -178
-264 -49 -19 -99 -19 -1970 -19 -1871 0 -1921 0 -1970 19 -72 27 -111 60 -144
121 -24 43 -30 69 -34 141 l-5 89 2153 0 2152 0 -4 -87z m-1648 -441 c0 -9 47
-282 56 -324 l6 -28 -552 0 -551 0 6 33 c2 17 14 93 25 167 12 74 23 141 25
148 3 9 111 12 495 12 269 0 490 -3 490 -8z m486 -535 c20 -23 24 -39 24 -88
l0 -59 -1005 0 -1005 0 0 53 c0 61 16 97 50 114 20 10 224 12 968 10 l944 -2
24 -28z"/>
<path d="M2069 9295 c-685 -130 -1145 -770 -1045 -1455 39 -263 154 -503 341
-710 100 -110 160 -191 197 -264 35 -69 68 -192 68 -252 0 -49 24 -126 50
-164 15 -22 15 -29 4 -55 -20 -46 -17 -182 5 -230 10 -22 25 -46 34 -54 12
-10 17 -30 17 -70 0 -114 84 -231 191 -266 33 -11 49 -22 49 -34 0 -9 12 -41
26 -70 102 -204 441 -218 564 -24 17 26 33 62 36 80 5 25 14 37 33 44 127 46
211 159 211 285 0 32 6 50 25 70 45 49 59 164 31 258 -14 44 -13 49 11 91 15
28 32 86 44 155 35 197 93 314 239 474 150 166 228 284 292 447 70 179 82 248
83 474 0 188 -2 207 -28 309 -125 476 -469 819 -946 943 -123 31 -409 41 -532
18z m411 -150 c370 -56 678 -285 846 -630 127 -263 143 -603 41 -876 -59 -157
-137 -281 -275 -436 -106 -120 -163 -201 -203 -289 -34 -75 -65 -186 -74 -269
-4 -33 -14 -75 -22 -92 l-15 -33 -483 0 c-411 0 -484 2 -495 15 -6 8 -16 47
-22 87 -32 240 -93 371 -258 553 -113 124 -187 230 -240 339 -60 124 -86 204
-105 321 -90 552 227 1092 741 1264 178 60 372 76 564 46z m272 -2782 c13 -12
18 -31 18 -75 l0 -58 -480 0 -480 0 0 55 c0 42 5 60 20 75 19 19 33 20 462 20
397 0 443 -2 460 -17z m-52 -310 c0 -47 -30 -97 -72 -123 -31 -19 -51 -20
-346 -20 l-314 0 -33 33 c-33 33 -61 106 -51 133 4 12 73 14 411 14 l405 0 0
-37z m-240 -302 c0 -16 -42 -61 -70 -76 -39 -20 -143 -19 -186 1 -33 16 -74
57 -74 75 0 5 74 9 165 9 91 0 165 -4 165 -9z"/>
<path d="M2780 8510 c-19 -19 -20 -33 -20 -533 0 -594 -9 -547 101 -547 42 0
72 5 87 16 l22 15 0 515 c0 599 9 554 -105 554 -52 0 -69 -4 -85 -20z"/>
<path d="M2002 8508 c-9 -12 -283 -771 -350 -970 -34 -101 -28 -108 79 -108
93 0 92 -1 134 130 15 47 32 91 38 98 8 10 56 12 210 10 l200 -3 36 -105 c20
-58 40 -111 44 -118 5 -8 36 -12 86 -12 89 0 117 13 109 51 -9 40 -360 1013
-371 1027 -6 8 -41 12 -107 12 -66 0 -101 -4 -108 -12z m172 -447 c36 -106 66
-195 66 -197 0 -2 -61 -4 -135 -4 -74 0 -135 4 -135 9 0 4 24 80 54 167 71
208 78 226 81 222 2 -2 33 -90 69 -197z"/>
<path d="M670 9048 c-26 -29 -26 -69 3 -95 23 -22 219 -140 279 -168 32 -16
37 -16 66 -1 19 10 34 27 38 43 14 53 -4 71 -156 159 -158 91 -193 101 -230
62z"/>
<path d="M3692 8984 c-149 -89 -170 -111 -153 -157 12 -32 37 -50 69 -50 29 0
297 152 320 181 18 24 15 69 -8 92 -37 37 -74 26 -228 -66z"/>
<path d="M6981 8976 c-41 -23 -50 -53 -51 -169 0 -94 -2 -108 -17 -113 -17 -5
-151 -56 -163 -62 -3 -1 -38 26 -76 61 -80 71 -121 92 -161 82 -31 -7 -286
-253 -309 -297 -24 -45 -8 -82 74 -169 61 -65 72 -82 62 -94 -6 -8 -24 -46
-39 -85 l-28 -70 -100 -3 c-170 -4 -183 -24 -183 -274 0 -265 6 -275 173 -283
l110 -5 17 -50 c9 -27 26 -69 37 -92 l20 -41 -69 -69 c-76 -75 -95 -117 -75
-164 7 -16 74 -92 149 -169 133 -136 139 -140 179 -140 45 0 70 15 167 102
l52 48 58 -29 c31 -16 72 -32 90 -36 l32 -7 0 -105 0 -105 35 -35 34 -34 205
3 206 3 32 32 c31 31 32 36 37 138 l6 106 68 24 c37 13 75 29 83 36 12 10 20
8 42 -13 142 -128 142 -128 190 -128 45 0 46 1 183 136 76 75 143 150 150 166
20 48 -1 94 -80 172 l-70 69 21 41 c12 23 29 64 39 91 l17 50 104 5 c113 5
139 15 168 63 18 29 20 51 20 210 0 212 -7 238 -77 269 -34 15 -63 19 -129 17
l-86 -2 -18 49 c-9 27 -26 67 -38 90 l-21 41 65 64 c130 128 129 135 -38 308
-148 151 -172 171 -208 171 -35 -1 -59 -16 -140 -89 l-71 -63 -37 18 c-20 10
-59 25 -87 34 l-50 17 -5 106 c-5 114 -19 148 -71 174 -35 18 -395 17 -428 -1z
m351 -245 c4 -128 10 -139 95 -165 32 -10 95 -38 140 -62 46 -24 95 -44 109
-44 19 0 48 21 105 77 l80 77 89 -89 89 -89 -74 -77 c-50 -51 -75 -85 -75
-100 0 -13 19 -62 42 -109 23 -46 49 -111 59 -143 28 -94 33 -97 166 -97 l113
0 0 -130 0 -130 -102 0 c-140 0 -146 -4 -183 -115 -17 -50 -47 -120 -68 -157
-20 -36 -37 -74 -37 -83 0 -10 37 -55 82 -101 l82 -85 -89 -89 -89 -89 -83 79
c-94 91 -108 95 -181 50 -26 -16 -91 -43 -143 -60 -51 -17 -101 -38 -109 -46
-11 -10 -16 -44 -18 -124 l-4 -111 -124 3 -124 3 -4 97 c-2 65 -9 105 -19 120
-9 15 -44 33 -101 52 -48 16 -111 44 -139 62 -77 49 -90 46 -192 -46 l-89 -80
-90 89 -90 90 77 79 c56 58 77 87 77 106 0 14 -18 61 -40 104 -22 42 -49 108
-60 147 -11 38 -27 76 -35 84 -11 12 -44 17 -125 19 l-110 4 0 129 0 129 109
0 c105 0 110 1 130 25 11 14 29 56 41 93 12 37 37 95 56 130 54 96 51 110 -39
200 l-77 77 90 90 89 89 80 -77 c95 -91 110 -94 196 -42 32 19 93 46 136 60
117 39 118 40 120 165 1 58 4 108 6 113 2 4 60 7 128 7 l123 0 4 -109z"/>
<path d="M7063 8306 c-185 -45 -343 -208 -389 -402 -22 -95 -14 -226 19 -318
120 -327 510 -457 806 -269 191 122 289 364 235 582 -50 204 -217 370 -412
410 -69 14 -193 13 -259 -3z m300 -169 c79 -36 128 -77 167 -137 104 -163 89
-358 -39 -493 -193 -204 -524 -153 -644 101 -30 62 -32 74 -31 172 0 91 3 112
26 160 47 102 137 182 241 216 26 9 75 13 132 11 73 -2 101 -8 148 -30z"/>
<path d="M4560 8210 c-12 -12 -20 -33 -20 -53 0 -28 18 -50 145 -177 l145
-145 -387 -5 -388 -5 -56 -28 c-66 -32 -132 -99 -162 -165 -22 -47 -22 -47
-25 -998 -2 -915 -2 -952 16 -974 23 -29 73 -31 102 -5 19 18 20 33 22 950 l3
932 30 49 c20 31 47 58 75 74 l45 25 375 3 375 3 -157 -159 c-138 -138 -158
-163 -158 -190 0 -42 31 -72 73 -72 29 0 55 23 255 223 204 205 222 226 222
258 0 32 -18 52 -223 257 -198 197 -227 222 -255 222 -19 0 -40 -8 -52 -20z"/>
<path d="M498 8173 c-59 -9 -79 -95 -32 -132 24 -19 40 -21 181 -21 169 0 208
10 219 55 11 43 -4 75 -41 91 -33 13 -253 18 -327 7z"/>
<path d="M3745 8155 c-30 -30 -32 -64 -4 -99 l20 -26 179 0 179 0 20 26 c28
35 26 69 -4 99 -24 25 -27 25 -195 25 -168 0 -171 0 -195 -25z"/>
<path d="M2407 5416 c-66 -18 -126 -62 -162 -121 l-30 -48 -3 -1449 -2 -1449
21 -50 c13 -29 40 -66 66 -89 85 -75 8 -71 1259 -68 l1119 3 51 27 c58 30 98
73 125 133 18 38 19 101 19 1273 l0 1233 -292 300 c-160 165 -300 304 -309
310 -11 5 -375 9 -916 8 -703 0 -908 -3 -946 -13z m1763 -341 c0 -163 3 -213
15 -243 20 -47 50 -78 100 -105 36 -20 58 -22 243 -25 l202 -3 0 -1156 c0
-1267 3 -1198 -58 -1240 -26 -17 -85 -18 -1119 -21 -1205 -3 -1143 -6 -1183
60 -20 33 -20 46 -20 1439 l0 1406 23 34 c12 18 34 39 47 46 19 10 218 13 888
13 l862 0 0 -205z m304 -72 l149 -153 -136 0 c-183 0 -177 -6 -177 176 0 75 3
134 8 132 4 -1 74 -72 156 -155z"/>
<path d="M2745 4748 c-50 -27 -59 -75 -20 -113 l24 -25 506 0 506 0 24 25 c14
13 25 36 25 50 0 14 -11 37 -25 50 l-24 25 -498 0 c-341 -1 -504 -4 -518 -12z"/>
<path d="M2763 4343 c-29 -6 -63 -49 -63 -79 0 -13 9 -33 20 -44 20 -20 33
-20 848 -20 777 0 830 1 845 18 29 32 31 67 4 98 l-25 29 -804 1 c-441 1 -813
-1 -825 -3z"/>
<path d="M3361 3939 c-58 -18 -107 -58 -137 -112 -29 -52 -29 -52 -29 -232 0
-165 2 -183 22 -220 45 -84 114 -125 210 -125 73 0 127 24 174 77 56 62 64 96
64 278 -1 173 -7 200 -61 264 -52 63 -163 94 -243 70z m122 -149 c15 -12 31
-38 37 -58 13 -48 13 -216 0 -264 -21 -74 -101 -102 -157 -54 -28 24 -28 25
-31 165 -3 113 0 146 13 174 27 57 91 74 138 37z"/>
<path d="M2833 3864 c-107 -92 -123 -110 -123 -138 0 -32 36 -66 70 -66 16 0
42 11 58 25 17 14 33 25 36 25 3 0 6 -94 6 -209 0 -206 0 -210 22 -225 30 -21
61 -20 89 3 l24 19 0 300 c0 281 -1 301 -19 321 -35 38 -67 28 -163 -55z"/>
<path d="M3896 3849 c-90 -77 -106 -95 -106 -120 0 -65 73 -90 128 -44 17 14
31 25 33 25 2 0 4 -92 4 -204 0 -186 2 -206 19 -225 24 -27 70 -27 96 -1 19
19 20 33 20 324 0 304 0 305 -22 320 -41 29 -63 19 -172 -75z"/>
<path d="M3852 3129 c-18 -5 -55 -31 -81 -57 -67 -64 -81 -115 -81 -287 0
-171 14 -223 80 -286 116 -113 296 -79 376 71 17 30 19 59 19 215 0 165 -2
183 -21 220 -26 48 -68 91 -108 112 -37 19 -139 26 -184 12z m127 -145 c40
-28 51 -73 51 -201 0 -141 -14 -180 -72 -201 -47 -18 -86 -1 -111 48 -15 30
-18 56 -15 173 l3 139 33 29 c37 33 76 37 111 13z"/>
<path d="M2838 3059 c-107 -90 -128 -115 -128 -145 0 -32 33 -64 68 -64 15 0
44 11 63 25 l34 26 5 -213 5 -212 27 -15 c20 -12 34 -13 55 -6 51 19 53 35 51
346 -3 266 -4 288 -22 308 -34 38 -67 27 -158 -50z"/>
<path d="M3313 3039 c-92 -80 -103 -93 -103 -123 0 -66 72 -88 129 -40 l31 26
0 -204 c0 -201 0 -205 23 -226 29 -27 71 -28 97 -2 19 19 20 33 20 318 0 333
-2 342 -63 342 -26 -1 -52 -18 -134 -91z"/>
<path d="M6978 4452 c-169 -169 -198 -202 -198 -228 0 -47 25 -74 68 -74 34 0
47 10 152 115 63 63 118 115 122 115 12 0 9 -456 -3 -530 -22 -140 -124 -270
-261 -335 -90 -42 -184 -55 -419 -55 -160 0 -166 -1 -187 -23 -27 -29 -28 -71
-2 -97 19 -19 33 -20 243 -20 260 0 323 10 446 71 154 76 278 229 316 390 11
49 15 129 15 339 l0 275 123 -123 c111 -111 126 -122 158 -122 44 0 72 28 72
71 0 27 -26 57 -199 230 -150 149 -206 199 -224 199 -18 0 -74 -50 -222 -198z"/>
<path d="M5890 4368 c-44 -48 -32 -69 127 -230 l147 -148 -516 0 c-573 0 -551
3 -564 -67 -5 -26 -1 -37 19 -57 l26 -26 518 0 518 0 -86 -87 c-184 -190 -209
-220 -209 -250 0 -37 37 -73 74 -73 22 0 66 40 244 221 119 121 221 229 226
239 5 10 6 29 3 42 -4 13 -105 121 -225 241 -192 191 -222 217 -250 217 -19 0
-39 -8 -52 -22z"/>
<path d="M2888 1807 c-102 -52 -150 -142 -151 -277 0 -179 122 -310 288 -310
157 0 275 118 275 275 l0 55 -130 0 c-71 0 -133 1 -137 3 -5 1 -9 -17 -11 -40
l-3 -43 80 0 c44 0 82 -4 86 -10 8 -14 -19 -72 -46 -97 -33 -30 -97 -43 -153
-31 -95 20 -153 136 -128 257 20 94 69 142 155 149 63 5 105 -12 137 -58 19
-26 27 -30 71 -30 60 0 68 13 40 68 -40 78 -127 122 -241 122 -57 0 -78 -5
-132 -33z"/>
<path d="M3962 1832 l-42 -3 2 -297 3 -297 50 0 50 0 3 204 2 203 126 -193
c68 -107 132 -200 142 -207 10 -7 36 -12 62 -10 l45 3 3 289 c1 178 -1 293 -7
299 -6 6 -29 10 -53 10 l-43 0 -5 -203 -5 -204 -129 202 c-72 110 -137 202
-145 204 -9 2 -35 2 -59 0z"/>
<path d="M5044 1825 c-3 -6 -3 -141 -2 -300 l3 -290 50 0 50 0 3 103 3 102 39
0 c22 0 43 1 48 2 4 1 34 -46 68 -103 l60 -104 48 -3 c27 -2 53 1 59 7 6 6
-12 46 -52 117 -57 98 -60 109 -44 118 126 69 120 292 -9 340 -51 18 -318 28
-324 11z m285 -121 c28 -36 29 -106 1 -134 -25 -25 -53 -32 -121 -28 l-54 3
-3 93 -3 92 80 0 c74 0 81 -2 100 -26z"/>
<path d="M6765 1830 l-180 -5 0 -295 0 -295 190 0 190 0 0 45 0 45 -133 5
c-72 3 -132 8 -132 13 0 4 0 38 0 77 l0 69 108 3 107 3 0 40 0 40 -107 3 -108
3 0 74 0 74 128 3 127 3 3 44 c2 24 0 46 -5 50 -4 3 -89 4 -188 1z"/>
<path d="M3422 1533 l3 -298 190 0 190 0 0 45 0 45 -135 5 -135 5 0 75 0 75
110 5 110 5 0 40 0 40 -110 5 -110 5 -3 73 -3 72 135 0 c135 0 136 0 142 24 3
13 4 35 2 47 l-3 24 -193 3 -192 2 2 -297z"/>
<path d="M4542 1533 l3 -298 188 -3 187 -2 11 24 c7 14 9 36 5 50 l-6 25 -138
3 -137 3 0 75 0 75 113 3 113 3 -3 42 -3 42 -110 5 -110 5 -3 72 -3 72 138 3
138 3 3 48 3 47 -196 0 -195 0 2 -297z"/>
<path d="M5643 1543 c-57 -159 -103 -294 -103 -301 0 -8 18 -12 54 -12 l54 0
23 68 24 67 111 3 111 3 24 -68 24 -68 49 -3 c27 -2 53 1 58 6 6 6 -16 80 -58
198 -38 104 -84 234 -104 289 l-35 100 -65 3 -65 3 -102 -288z m202 43 c19
-53 35 -104 35 -111 0 -12 -16 -15 -75 -15 -41 0 -75 3 -75 7 0 15 72 224 76
221 2 -2 19 -48 39 -102z"/>
<path d="M6054 1804 c-4 -14 -2 -36 5 -50 10 -22 16 -24 86 -24 l75 0 2 -247
3 -248 50 0 50 0 3 247 2 247 83 3 82 3 3 48 3 47 -220 0 -221 0 -6 -26z"/>
<path d="M7475 1821 c-21 -35 -204 -576 -197 -583 5 -5 31 -8 57 -6 l48 3 22
65 22 65 113 0 113 0 22 -65 22 -65 56 -3 c42 -2 57 1 57 10 0 7 -45 142 -101
301 l-102 287 -63 0 c-35 0 -65 -4 -69 -9z m106 -241 c20 -60 34 -112 31 -115
-7 -7 -137 -6 -144 1 -7 6 64 224 72 224 3 -1 21 -50 41 -110z"/>
<path d="M7912 1533 l3 -298 50 0 50 0 3 298 2 297 -55 0 -55 0 2 -297z"/>
<path d="M5062 951 c-67 -23 -133 -86 -164 -155 -31 -71 -32 -210 -2 -277 48
-104 125 -159 236 -167 128 -9 221 38 265 134 13 29 22 58 18 64 -3 5 -28 10
-55 10 -45 0 -51 -3 -65 -29 -47 -92 -183 -106 -254 -26 -75 86 -64 265 22
329 37 28 133 34 176 11 18 -9 40 -30 49 -46 15 -26 22 -29 70 -29 51 0 52 0
52 30 0 23 -13 43 -52 84 -81 83 -183 106 -296 67z"/>
<path d="M6907 956 c-135 -48 -207 -171 -194 -329 17 -202 181 -317 380 -266
170 43 254 274 166 456 -58 119 -223 184 -352 139z m188 -115 c99 -57 112
-269 20 -349 -65 -58 -177 -52 -234 13 -71 81 -68 252 7 318 53 48 144 55 207
18z"/>
<path d="M2745 948 c-49 -131 -194 -548 -197 -563 -3 -18 3 -20 51 -20 l54 0
22 65 22 65 110 3 111 3 22 -58 c11 -32 23 -64 25 -70 6 -16 115 -18 115 -2 0
10 -170 493 -196 557 -13 31 -15 32 -74 32 -39 0 -62 -4 -65 -12z m103 -242
c18 -48 32 -94 32 -102 0 -11 -18 -14 -76 -14 -57 0 -75 3 -72 13 3 6 20 56
38 110 18 54 36 95 40 90 4 -4 21 -48 38 -97z"/>
<path d="M3165 938 c-3 -13 -4 -147 -3 -298 l3 -275 55 0 55 0 3 101 3 101 87
5 c97 6 136 21 176 68 38 45 51 104 38 167 -15 70 -35 98 -95 128 -47 23 -61
25 -184 25 -129 0 -133 -1 -138 -22z m258 -89 c14 -6 30 -22 36 -36 23 -51 6
-113 -36 -132 -13 -6 -51 -11 -83 -11 l-60 0 0 95 0 95 60 0 c32 0 70 -5 83
-11z"/>
<path d="M3682 663 l3 -298 50 0 50 0 3 103 3 102 63 0 c92 0 157 22 199 69
80 89 56 243 -46 298 -25 14 -64 18 -180 21 l-147 4 2 -299z m272 175 c38 -35
39 -106 1 -143 -21 -22 -33 -25 -95 -25 l-70 0 0 95 0 95 69 0 c58 0 74 -4 95
-22z"/>
<path d="M4200 661 l0 -301 185 0 185 0 6 24 c3 13 4 35 2 47 -3 24 -5 24
-135 27 l-133 3 -2 247 -3 247 -52 3 -53 3 0 -300z"/>
<path d="M4665 947 c-3 -7 -4 -140 -3 -297 l3 -285 50 0 50 0 3 298 2 297 -50
0 c-32 0 -52 -5 -55 -13z"/>
<path d="M5666 951 c-10 -15 -206 -571 -206 -582 0 -6 24 -9 57 -7 l57 3 20
65 21 65 111 3 111 3 24 -68 24 -68 58 -3 c42 -2 57 0 56 10 0 7 -46 141 -103
298 l-103 285 -60 3 c-34 2 -64 -1 -67 -7z m130 -336 c6 -25 6 -25 -70 -25
-42 0 -76 3 -76 7 0 5 16 57 37 118 l36 109 33 -92 c19 -51 37 -104 40 -117z"/>
<path d="M5964 946 c-3 -8 -4 -29 -2 -48 l3 -33 80 -5 80 -5 5 -245 5 -245 50
0 50 0 5 245 5 245 77 3 c71 3 76 4 82 27 4 14 4 36 0 50 l-6 25 -214 0 c-175
0 -216 -3 -220 -14z"/>
<path d="M6495 947 c-3 -7 -4 -140 -3 -297 l3 -285 49 -3 c32 -2 52 1 57 10
10 15 12 548 3 572 -8 20 -102 23 -109 3z"/>
<path d="M7405 947 c-3 -7 -4 -140 -3 -297 l3 -285 48 -3 47 -3 0 200 c0 111
3 201 8 201 4 -1 63 -88 132 -196 130 -202 136 -208 201 -202 l34 3 3 298 2
298 -52 -3 -53 -3 -5 -197 -5 -197 -120 186 c-66 102 -126 192 -133 200 -17
17 -101 17 -107 0z"/>
</g>
</svg>
