<?xml version="1.0" standalone="no"?>
<!DOCTYPE svg PUBLIC "-//W3C//DTD SVG 20010904//EN"
 "http://www.w3.org/TR/2001/REC-SVG-20010904/DTD/svg10.dtd">
<svg version="1.0" xmlns="http://www.w3.org/2000/svg"
 width="300.000000pt" height="450.000000pt" viewBox="0 0 300.000000 450.000000"
 preserveAspectRatio="xMidYMid meet">
<metadata>
Created by potrace 1.10, written by Peter Selinger 2001-2011
</metadata>
<g transform="translate(0.000000,450.000000) scale(0.100000,-0.100000)"
fill="#000000" stroke="none">
<path d="M315 3527 c-3 -7 -4 -152 -3 -322 l3 -310 67 -3 67 -3 3 -57 3 -57
218 -3 217 -2 0 -316 0 -315 -210 1 c-115 1 -214 -1 -220 -5 -6 -4 -10 -93
-10 -246 l0 -239 -50 0 -50 0 0 285 0 284 157 3 c141 3 158 5 161 21 3 16 -10
17 -171 17 -150 0 -176 -2 -181 -16 -3 -9 -6 -152 -6 -319 0 -232 3 -306 13
-312 6 -4 38 -6 69 -5 l57 3 3 -58 3 -58 269 -3 c193 -2 272 1 283 9 11 10 13
60 11 285 l-3 274 513 0 512 0 0 -244 c0 -176 3 -247 12 -252 6 -4 35 -6 65
-5 l53 2 0 -48 c0 -27 5 -54 12 -61 17 -17 529 -17 546 0 17 17 17 619 0 636
-7 7 -38 12 -70 12 l-58 0 0 43 c0 24 -5 48 -12 55 -9 9 -75 12 -235 12 l-223
0 0 340 0 340 25 0 c23 0 25 -4 25 -47 0 -27 4 -54 8 -61 7 -9 70 -12 283 -10
l274 3 3 314 c2 223 -1 318 -9 327 -7 9 -33 14 -70 14 l-58 0 -3 53 -3 52
-275 0 -275 0 -3 -252 -2 -253 -515 -2 -515 -3 0 190 c0 135 -4 195 -12 203
-7 7 -38 12 -70 12 l-58 0 0 39 c0 76 19 71 -286 71 -212 0 -276 -3 -279 -13z
m521 -62 l-1 -35 -181 0 c-127 0 -184 -4 -192 -12 -9 -9 -12 -78 -12 -250 l0
-238 -50 0 -50 0 0 285 0 285 243 0 244 0 -1 -35z m1734 0 l0 -35 -183 0
c-129 0 -187 -4 -195 -12 -9 -9 -12 -78 -12 -250 l0 -238 -24 0 c-18 0 -25 7
-29 29 -3 16 -13 36 -22 44 -13 13 -15 52 -15 256 l0 241 240 0 240 0 0 -35z
m-1600 -254 l0 -179 -29 -11 c-39 -17 -51 -49 -51 -136 l0 -75 -200 0 -200 0
0 285 0 285 238 3 c130 1 238 3 240 5 1 1 2 -78 2 -177z m1740 -116 l0 -285
-240 0 -240 0 0 288 0 287 240 -3 240 -3 0 -284z m-630 -188 l5 -67 -575 0
-575 0 3 57 c2 32 5 64 7 71 4 10 122 12 567 10 l563 -3 5 -68z m0 -452 c0
-256 -4 -341 -13 -347 -16 -10 -1098 -10 -1114 0 -9 6 -13 90 -13 342 0 184 0
338 0 343 0 4 257 6 571 5 l570 -3 -1 -340z m480 -320 l0 -35 -179 0 c-152 0
-182 -3 -196 -16 -14 -14 -15 -46 -13 -250 l3 -234 -47 0 -48 0 0 230 0 229
25 25 c16 16 25 36 25 56 l0 30 215 0 215 0 0 -35z m-1640 -55 c11 -11 27 -20
35 -20 13 0 15 -36 15 -265 l0 -265 -240 0 -240 0 0 285 0 285 205 0 c192 0
206 -1 225 -20z m1780 -315 l0 -285 -240 0 -240 0 0 285 0 285 240 0 240 0 0
-285z"/>
<path d="M570 3270 c0 -20 4 -20 163 -18 136 3 162 5 162 18 0 13 -26 15 -162
18 -159 2 -163 2 -163 -18z"/>
<path d="M572 3149 c3 -19 9 -20 157 -20 86 0 158 4 164 10 25 25 -9 31 -164
31 -156 0 -160 -1 -157 -21z"/>
<path d="M570 3030 c0 -19 7 -20 110 -20 103 0 110 1 110 20 0 19 -7 20 -110
20 -103 0 -110 -1 -110 -20z"/>
<path d="M2305 3280 c-15 -25 13 -30 166 -30 152 0 159 1 159 20 0 19 -7 20
-159 20 -96 0 -162 -4 -166 -10z"/>
<path d="M2305 3160 c-18 -29 14 -35 169 -32 147 3 156 4 156 22 0 19 -8 20
-159 20 -100 0 -162 -4 -166 -10z"/>
<path d="M2305 3040 c-17 -27 13 -35 117 -30 83 4 103 8 103 20 0 12 -20 16
-107 18 -68 2 -109 -1 -113 -8z"/>
<path d="M995 2920 c-9 -15 4 -30 26 -30 12 0 19 7 19 20 0 21 -33 29 -45 10z"/>
<path d="M1090 2910 c0 -16 5 -21 23 -18 12 2 22 10 22 18 0 8 -10 16 -22 18
-18 3 -23 -2 -23 -18z"/>
<path d="M1185 2920 c-4 -7 -3 -16 3 -22 14 -14 45 -2 40 15 -6 16 -34 21 -43
7z"/>
<path d="M1527 2703 c-2 -4 -26 -118 -52 -251 -35 -179 -44 -247 -36 -255 23
-23 38 23 81 248 24 127 43 237 44 245 1 15 -29 26 -37 13z"/>
<path d="M1253 2654 c-4 -10 13 -35 51 -73 l58 -58 -119 5 c-100 4 -120 2
-132 -11 -24 -30 -2 -37 122 -37 l122 0 -52 -51 c-53 -50 -63 -72 -42 -85 12
-7 169 143 169 161 0 12 -151 165 -163 165 -4 0 -10 -7 -14 -16z"/>
<path d="M1600 2475 l-54 -55 49 -50 49 -50 116 0 c116 0 144 8 133 36 -4 11
-32 14 -122 14 -112 0 -119 1 -141 25 l-24 25 29 30 c29 30 29 30 141 30 114
0 137 7 114 35 -10 12 -39 15 -124 15 l-112 0 -54 -55z"/>
<path d="M572 1989 c3 -21 8 -21 157 -20 85 0 158 4 164 10 25 25 -9 31 -164
31 -157 0 -160 0 -157 -21z"/>
<path d="M572 1869 c3 -20 8 -21 161 -21 88 0 161 3 164 6 3 3 3 12 0 21 -5
13 -31 15 -167 15 -158 0 -161 0 -158 -21z"/>
<path d="M572 1749 c3 -20 8 -22 108 -21 96 0 105 1 105 18 0 17 -10 19 -108
22 -106 3 -108 2 -105 -19z"/>
<path d="M2295 1950 c-15 -25 13 -30 166 -30 152 0 159 1 159 20 0 19 -7 20
-159 20 -96 0 -162 -4 -166 -10z"/>
<path d="M2295 1830 c-15 -25 13 -30 166 -30 152 0 159 1 159 20 0 19 -7 20
-159 20 -96 0 -162 -4 -166 -10z"/>
<path d="M2295 1709 c-15 -23 15 -30 116 -27 84 2 104 6 104 18 0 12 -20 16
-107 18 -71 2 -109 -1 -113 -9z"/>
<path d="M577 2643 c-4 -3 -7 -70 -7 -148 0 -176 3 -180 110 -173 66 5 70 4
55 -12 -18 -20 -19 -36 -4 -46 12 -7 89 63 89 81 0 15 -73 85 -88 85 -18 0
-15 -30 6 -53 16 -20 16 -20 -1 -14 -10 4 -43 7 -73 7 l-55 0 2 129 c0 71 -2
134 -6 140 -7 12 -19 14 -28 4z"/>
<path d="M2407 2644 c-4 -4 -7 -67 -7 -140 l0 -132 -62 -4 c-70 -4 -81 -1 -55
13 21 12 23 49 1 49 -17 0 -84 -67 -84 -84 0 -19 77 -89 89 -82 15 10 14 26
-4 46 -13 14 -8 15 54 12 60 -4 72 -1 90 17 20 20 21 30 19 164 -3 119 -6 142
-18 145 -9 1 -19 0 -23 -4z"/>
<path d="M485 1170 l0 -90 45 0 c74 0 114 45 75 84 -9 9 -11 17 -5 21 14 9 13
48 -2 63 -7 7 -35 12 -62 12 l-51 0 0 -90z m90 40 c0 -9 -11 -16 -27 -18 -23
-3 -28 1 -28 18 0 17 5 21 28 18 16 -2 27 -9 27 -18z m0 -75 c0 -14 -8 -21
-27 -23 -24 -3 -28 0 -28 23 0 23 4 26 28 23 19 -2 27 -9 27 -23z"/>
<path d="M648 1188 c4 -87 19 -108 72 -108 56 0 70 22 70 108 0 64 -2 72 -19
72 -18 0 -19 -5 -14 -53 6 -60 -8 -97 -35 -97 -31 0 -42 22 -42 87 0 53 -3 63
-17 63 -16 0 -18 -9 -15 -72z"/>
<path d="M830 1170 c0 -79 2 -90 18 -90 15 0 17 11 17 90 0 79 -2 90 -17 90
-16 0 -18 -11 -18 -90z"/>
<path d="M900 1170 l0 -90 55 0 c42 0 55 3 55 15 0 10 -11 15 -35 15 l-35 0 0
75 c0 68 -2 75 -20 75 -19 0 -20 -7 -20 -90z"/>
<path d="M1040 1170 l0 -90 45 0 c62 0 95 32 95 90 0 58 -33 90 -95 90 l-45 0
0 -90z m94 38 c9 -12 16 -30 16 -40 0 -24 -35 -58 -60 -58 -18 0 -20 7 -20 60
0 57 1 60 24 60 14 0 32 -10 40 -22z"/>
<path d="M1298 1250 c-9 -6 -22 -26 -28 -45 -14 -42 1 -100 30 -115 27 -14 73
-12 95 4 16 12 17 16 6 30 -13 15 -15 15 -26 0 -18 -25 -63 -11 -71 23 -15 58
32 105 72 72 11 -9 18 -9 26 -1 30 30 -59 58 -104 32z"/>
<path d="M1454 1239 c-29 -32 -26 -115 5 -140 30 -24 82 -24 112 0 30 24 33
109 4 141 -25 28 -95 28 -121 -1z m94 -21 c7 -7 12 -28 12 -48 0 -41 -14 -60
-45 -60 -31 0 -45 19 -45 60 0 41 14 60 45 60 12 0 26 -5 33 -12z"/>
<path d="M1625 1170 c0 -79 2 -90 18 -90 14 0 17 10 18 63 l1 62 20 -47 c11
-27 26 -48 33 -48 6 0 20 18 30 40 27 61 36 58 28 -9 -5 -58 -5 -61 16 -61 20
0 21 5 21 90 0 88 -1 90 -24 90 -19 0 -28 -10 -46 -52 l-23 -53 -23 53 c-18
41 -28 52 -46 52 -22 0 -23 -3 -23 -90z"/>
<path d="M1850 1170 c0 -84 1 -90 21 -90 17 0 20 4 14 29 -6 27 -4 29 34 35
42 6 61 27 61 65 0 34 -27 51 -81 51 l-49 0 0 -90z m94 43 c5 -11 0 -22 -11
-31 -26 -19 -48 -10 -51 21 -3 24 0 27 26 27 19 0 32 -6 36 -17z"/>
<path d="M2045 1248 c-2 -7 -16 -45 -30 -84 -30 -86 -30 -84 -5 -84 13 0 20 7
20 20 0 17 7 20 40 20 33 0 40 -3 40 -20 0 -13 7 -20 20 -20 24 0 24 6 7 51
-8 19 -22 55 -31 82 -13 34 -23 47 -37 47 -11 0 -22 -6 -24 -12z m40 -70 c6
-24 4 -28 -15 -28 -18 0 -21 4 -16 23 3 12 6 29 6 37 0 21 17 0 25 -32z"/>
<path d="M2180 1170 c0 -84 1 -90 20 -90 18 0 20 4 14 35 -5 27 -3 35 8 35 8
0 23 -16 34 -35 13 -24 26 -35 42 -35 l23 0 -25 37 c-25 36 -25 37 -6 50 11 8
20 24 20 37 0 36 -30 56 -83 56 l-47 0 0 -90z m88 33 c3 -20 -1 -23 -27 -23
-27 0 -31 4 -31 26 0 22 4 25 28 22 19 -2 28 -9 30 -25z"/>
<path d="M2348 1170 l3 -90 60 0 c46 0 59 3 59 15 0 11 -12 15 -45 15 -41 0
-45 2 -45 25 0 23 4 25 40 25 29 0 40 4 40 15 0 11 -11 15 -40 15 -33 0 -40 3
-40 20 0 17 7 20 45 20 33 0 45 4 45 15 0 12 -14 15 -62 15 l-63 0 3 -90z"/>
<path d="M760 960 c0 -15 7 -20 25 -20 24 0 25 -2 25 -76 0 -65 2 -75 17 -72
14 2 16 15 14 76 -2 71 -2 72 23 72 19 0 26 5 26 20 0 18 -7 20 -65 20 -58 0
-65 -2 -65 -20z"/>
<path d="M934 957 c-23 -20 -27 -32 -27 -72 0 -40 4 -52 27 -72 58 -50 136 -8
136 73 0 80 -78 121 -136 71z m80 -23 c16 -16 21 -59 10 -88 -7 -19 -55 -21
-72 -4 -17 17 -15 68 5 90 20 22 37 23 57 2z"/>
<path d="M1132 973 c-19 -7 -42 -58 -42 -93 0 -39 47 -90 83 -90 13 0 36 9 51
21 22 18 26 28 26 74 0 46 -4 56 -26 74 -25 20 -63 26 -92 14z m70 -40 c37
-33 16 -103 -31 -103 -32 0 -41 14 -41 65 0 49 38 69 72 38z"/>
<path d="M1290 975 c-1 -3 -1 -44 -1 -92 l-1 -88 53 0 c43 0 54 3 57 18 3 14
-4 17 -37 17 l-41 0 0 75 c0 60 -3 75 -15 75 -8 0 -15 -2 -15 -5z"/>
<path d="M1480 975 c-1 -3 -1 -44 -1 -92 -1 -73 2 -89 15 -91 14 -3 16 10 16
92 0 79 -3 96 -15 96 -8 0 -15 -2 -15 -5z"/>
<path d="M1550 884 c0 -86 2 -95 18 -92 14 3 16 13 14 62 -4 69 4 67 48 -10
47 -81 62 -71 62 41 0 73 -3 91 -16 93 -12 3 -16 -9 -18 -60 l-3 -63 -35 63
c-22 39 -41 62 -52 62 -16 0 -18 -11 -18 -96z"/>
<path d="M1808 903 c-15 -43 -30 -86 -33 -95 -5 -14 -2 -18 13 -18 13 0 22 9
26 24 5 19 12 24 40 24 28 0 35 -5 40 -24 4 -15 14 -24 26 -24 11 0 20 1 20 3
0 1 -15 43 -33 92 -45 121 -62 124 -99 18z m71 -34 c1 -4 -10 -6 -24 -6 -21 0
-25 3 -19 21 3 11 8 30 11 41 5 17 8 15 19 -15 7 -19 13 -38 13 -41z"/>
<path d="M1960 885 c0 -92 1 -95 23 -95 41 0 97 21 107 40 11 21 13 80 4 105
-9 23 -57 45 -99 45 l-35 0 0 -95z m98 37 c29 -37 6 -92 -38 -92 -30 0 -30 1
-30 53 0 30 3 57 7 60 10 10 46 -2 61 -21z"/>
<path d="M2156 959 c-22 -17 -26 -28 -26 -70 0 -40 5 -55 25 -74 72 -73 170
28 120 124 -24 46 -74 55 -119 20z m75 -19 c13 -7 19 -21 19 -45 0 -51 -9 -65
-41 -65 -46 0 -67 64 -32 102 19 21 27 22 54 8z"/>
</g>
</svg>
