<svg xmlns="http://www.w3.org/2000/svg" viewBox="0 0 1200 630">
  <defs>
    <linearGradient id="background" x1="80" y1="30" x2="1120" y2="600" gradientUnits="userSpaceOnUse">
      <stop stop-color="#172554"/>
      <stop offset="0.55" stop-color="#111827"/>
      <stop offset="1" stop-color="#2e1065"/>
    </linearGradient>
    <linearGradient id="accent" x1="95" y1="95" x2="365" y2="370" gradientUnits="userSpaceOnUse">
      <stop stop-color="#60a5fa"/>
      <stop offset="1" stop-color="#8b5cf6"/>
    </linearGradient>
    <filter id="shadow" x="-20%" y="-20%" width="140%" height="160%">
      <feDropShadow dx="0" dy="18" stdDeviation="22" flood-color="#000" flood-opacity=".35"/>
    </filter>
  </defs>
  <rect width="1200" height="630" fill="url(#background)"/>
  <circle cx="1080" cy="70" r="210" fill="#7c3aed" opacity=".12"/>
  <circle cx="110" cy="620" r="260" fill="#2563eb" opacity=".12"/>

  <g transform="translate(74 78)">
    <rect width="104" height="104" rx="25" fill="#0f172a" stroke="#334155" stroke-width="2"/>
    <path d="M22 28h31c20 0 36 16 36 36S73 100 53 100H22V28Z" fill="none" stroke="url(#accent)" stroke-width="10" transform="translate(0 -12)"/>
    <path d="M39 42h22m-22 18h34m-34 18h22" stroke="#fff" stroke-width="7" stroke-linecap="round"/>
    <circle cx="80" cy="81" r="14" fill="#22c55e" stroke="#0f172a" stroke-width="5"/>
    <path d="m74 81 4 4 8-9" fill="none" stroke="#fff" stroke-width="4" stroke-linecap="round" stroke-linejoin="round"/>
  </g>

  <text x="74" y="237" fill="#fff" font-family="-apple-system,BlinkMacSystemFont,'Segoe UI',sans-serif" font-size="54" font-weight="700">Release Lens</text>
  <text x="74" y="286" fill="#cbd5e1" font-family="-apple-system,BlinkMacSystemFont,'Segoe UI',sans-serif" font-size="27">Know what changed before you deploy.</text>

  <g font-family="-apple-system,BlinkMacSystemFont,'Segoe UI',sans-serif" font-size="19" fill="#e2e8f0">
    <g transform="translate(76 344)">
      <circle cx="13" cy="13" r="13" fill="#2563eb"/>
      <path d="m7 13 4 4 8-9" fill="none" stroke="#fff" stroke-width="3" stroke-linecap="round"/>
      <text x="39" y="20">Accurate build and Git comparisons</text>
    </g>
    <g transform="translate(76 396)">
      <circle cx="13" cy="13" r="13" fill="#7c3aed"/>
      <path d="m7 13 4 4 8-9" fill="none" stroke="#fff" stroke-width="3" stroke-linecap="round"/>
      <text x="39" y="20">Deployment risk and hotspots</text>
    </g>
    <g transform="translate(76 448)">
      <circle cx="13" cy="13" r="13" fill="#0891b2"/>
      <path d="m7 13 4 4 8-9" fill="none" stroke="#fff" stroke-width="3" stroke-linecap="round"/>
      <text x="39" y="20">Teams-ready release intelligence</text>
    </g>
  </g>

  <g transform="translate(578 66)" filter="url(#shadow)" font-family="-apple-system,BlinkMacSystemFont,'Segoe UI',sans-serif">
    <rect width="548" height="500" rx="18" fill="#111827" stroke="#475569" stroke-width="2"/>
    <rect width="548" height="49" rx="18" fill="#1e293b"/>
    <rect y="31" width="548" height="18" fill="#1e293b"/>
    <circle cx="25" cy="24" r="6" fill="#fb7185"/>
    <circle cx="46" cy="24" r="6" fill="#fbbf24"/>
    <circle cx="67" cy="24" r="6" fill="#4ade80"/>
    <text x="98" y="31" fill="#cbd5e1" font-size="15">Release Lens — release/2026.08</text>

    <text x="28" y="90" fill="#fff" font-size="24" font-weight="650">Production release briefing</text>
    <text x="28" y="119" fill="#94a3b8" font-size="14">build 18421 → build 18507 · analyzed in 1.8s</text>

    <g transform="translate(28 145)">
      <rect width="112" height="82" rx="11" fill="#1e293b"/>
      <text x="15" y="26" fill="#94a3b8" font-size="13">COMMITS</text>
      <text x="15" y="62" fill="#fff" font-size="30" font-weight="700">42</text>
      <rect x="124" width="112" height="82" rx="11" fill="#1e293b"/>
      <text x="139" y="26" fill="#94a3b8" font-size="13">PULL REQUESTS</text>
      <text x="139" y="62" fill="#fff" font-size="30" font-weight="700">12</text>
      <rect x="248" width="112" height="82" rx="11" fill="#1e293b"/>
      <text x="263" y="26" fill="#94a3b8" font-size="13">FILES</text>
      <text x="263" y="62" fill="#fff" font-size="30" font-weight="700">89</text>
      <rect x="372" width="120" height="82" rx="11" fill="#3f1d2e" stroke="#be123c"/>
      <text x="387" y="26" fill="#fda4af" font-size="13">RISK</text>
      <text x="387" y="62" fill="#fecdd3" font-size="27" font-weight="700">HIGH</text>
    </g>

    <text x="28" y="265" fill="#fff" font-size="17" font-weight="650">Risk signals</text>
    <g transform="translate(28 281)" font-size="14">
      <rect width="492" height="45" rx="8" fill="#1e293b"/>
      <circle cx="20" cy="22" r="7" fill="#f59e0b"/>
      <text x="38" y="27" fill="#e2e8f0">Database migration and infrastructure changes</text>
      <rect y="55" width="492" height="45" rx="8" fill="#1e293b"/>
      <circle cx="20" cy="77" r="7" fill="#fb7185"/>
      <text x="38" y="82" fill="#e2e8f0">3 direct commits bypassed pull requests</text>
    </g>

    <text x="28" y="416" fill="#fff" font-size="17" font-weight="650">Change hotspots</text>
    <g transform="translate(28 432)" font-size="14">
      <text x="0" y="18" fill="#cbd5e1">src/platform/deployment</text>
      <rect x="218" y="5" width="212" height="12" rx="6" fill="#334155"/>
      <rect x="218" y="5" width="181" height="12" rx="6" fill="#8b5cf6"/>
      <text x="449" y="18" fill="#cbd5e1">31</text>
      <text x="0" y="46" fill="#cbd5e1">database/migrations</text>
      <rect x="218" y="33" width="212" height="12" rx="6" fill="#334155"/>
      <rect x="218" y="33" width="128" height="12" rx="6" fill="#3b82f6"/>
      <text x="449" y="46" fill="#cbd5e1">22</text>
    </g>
  </g>
</svg>
